<svg width="75" height="75" viewBox="0 0 75 75" fill="none" xmlns="http://www.w3.org/2000/svg"><g clip-path="url(#clip0_2475_90684)"><path d="M15.4573 54.1205C16.3682 53.1384 17.937 53.0629 18.9238 53.9946L18.9491 54.0198L21.8083 56.6891C22.7951 57.6209 22.8457 59.1822 21.9095 60.1643C20.9733 61.1464 19.4045 61.1968 18.4177 60.265L15.5585 57.5957C14.5717 56.664 14.5211 55.1026 15.4573 54.1205Z" fill="#F49000"/><path d="M58.7503 54.1177C59.6865 55.0998 59.6359 56.6611 58.6491 57.5929L55.7899 60.2622C54.8031 61.194 53.2343 61.1436 52.2981 60.1615C51.3619 59.1794 51.4125 57.618 52.3993 56.6863L55.2585 54.017C56.2454 53.0852 57.7888 53.1356 58.725 54.0925C58.725 54.0925 58.725 54.1177 58.7503 54.1177Z" fill="#F49000"/><path d="M8.29583 25.238L36.2555 32.1631C37.47 32.4653 38.2038 33.6741 37.9255 34.8828C37.8749 35.1347 37.7737 35.3613 37.6218 35.5879C33.6746 41.8332 26.0331 44.9306 18.6447 43.0923C11.3575 41.3295 6.01858 35.0591 5.48722 27.6051C5.41131 26.346 6.34751 25.2883 7.61266 25.1876C7.84038 25.1624 8.06811 25.1876 8.29583 25.238Z" fill="#58CC02"/><path d="M65.8854 25.2401C67.1 24.9379 68.3398 25.6682 68.6435 26.8769C68.6941 27.1036 68.7194 27.3554 68.7194 27.582C68.1627 35.036 62.8491 41.2812 55.5619 43.0692C48.1734 44.9075 40.532 41.8352 36.5847 35.5648C35.9016 34.5324 36.2052 33.1473 37.2426 32.4674C37.445 32.3163 37.6981 32.2156 37.9511 32.1652L65.8854 25.2401Z" fill="#58CC02"/><path d="M49.7419 13.0254C48.8816 13.0506 48.0213 13.2268 47.2116 13.529C42.2776 15.6192 39.0135 16.6517 37.1158 16.6768C35.2181 16.6517 31.954 15.6192 27.0199 13.529C26.1849 13.2017 25.3246 13.0506 24.439 13.0254C20.8713 13.0254 17.9868 15.9214 17.9868 19.4721V39.341C17.9868 49.8672 26.5392 58.404 37.0905 58.4544C47.6671 58.404 56.1941 49.8672 56.1941 39.341V19.4721C56.1941 15.9214 53.3096 13.0254 49.7419 13.0254Z" fill="#58CC02"/><path d="M43.7205 44.929H38.9129C38.7105 44.929 38.5334 45.1053 38.5334 45.3067C38.5334 45.3319 38.5334 45.3823 38.5587 45.4074C38.9888 46.5406 40.0768 47.2961 41.3167 47.2709C42.6071 47.2709 43.7458 46.4903 44.1253 45.4074C44.1759 45.206 44.0747 45.0045 43.8723 44.9542C43.7964 44.929 43.7711 44.929 43.7205 44.929ZM35.6741 45.4074C35.7247 45.206 35.6235 45.0045 35.4464 44.9542C35.3958 44.929 35.3705 44.929 35.3199 44.929H30.5124C30.3099 44.9038 30.1581 45.0297 30.1328 45.2312C30.1328 45.2815 30.1328 45.3571 30.1581 45.4074C30.5883 46.5658 31.7016 47.2961 32.9161 47.2709C34.156 47.2709 35.2946 46.5155 35.6741 45.4074ZM39.4949 49.0085H34.6873C34.4849 49.0085 34.3078 49.1596 34.3078 49.3611C34.3078 49.4114 34.3078 49.4366 34.3331 49.487C34.7632 50.6454 35.8766 51.3757 37.0911 51.3505C38.3815 51.3505 39.5202 50.595 39.8744 49.487C39.925 49.2855 39.8238 49.0841 39.6467 49.0337C39.5961 49.0085 39.5455 49.0085 39.4949 49.0085Z" fill="#89E219"/><path d="M28.6902 16.9523L34.4592 23.2227C34.7122 23.4997 34.6869 23.953 34.3833 24.1796C34.3327 24.23 34.2821 24.2552 34.2315 24.2803C31.6253 25.3884 28.589 24.1796 27.4756 21.5858C26.8431 20.1252 26.9443 18.4632 27.7287 17.0782C28.007 16.6501 28.4118 16.5997 28.6902 16.9523Z" fill="#89E219"/><path d="M25.8317 18.437L31.4995 24.7074C31.7526 24.9844 31.7273 25.4377 31.4236 25.6643C31.373 25.7147 31.3224 25.7398 31.2718 25.765C28.6656 26.873 25.6546 25.6643 24.5413 23.0705C23.9087 21.6099 24.0099 19.9479 24.769 18.5629C24.9461 18.2607 25.351 18.1348 25.6546 18.311C25.7305 18.3362 25.7811 18.3866 25.8317 18.437Z" fill="#89E219"/><path d="M27.5772 19.7969H28.1339C32.0811 19.7969 35.2946 22.9699 35.2946 26.8983V26.9235V31.5319C35.2946 35.4603 32.1064 38.6585 28.1592 38.6585H28.1339H27.5772C23.63 38.6585 20.4165 35.4855 20.4165 31.557V31.5319V26.9235C20.4165 22.995 23.63 19.7969 27.5772 19.7969Z" fill="#89E219"/><path d="M45.4919 16.9501C45.7956 16.6228 46.2004 16.648 46.4535 17.0509C47.8451 19.5187 46.9595 22.6414 44.4798 24.0264C43.0882 24.807 41.4182 24.9078 39.9253 24.2782C39.5711 24.1019 39.4446 23.699 39.5964 23.3716C39.6217 23.3213 39.647 23.2709 39.6976 23.2206L45.4919 16.9501Z" fill="#89E219"/><path d="M48.3507 18.4375C48.5784 18.1605 49.0086 18.1353 49.2616 18.362C49.3122 18.4123 49.3628 18.4627 49.4134 18.5382C50.8051 21.0061 49.9195 24.1287 47.4398 25.5138C46.0481 26.2944 44.3781 26.3951 42.8853 25.7656C42.531 25.5893 42.4045 25.1864 42.5563 24.859C42.5816 24.8087 42.6069 24.7583 42.6575 24.7079L48.3507 18.4375Z" fill="#89E219"/><path d="M46.6051 19.7969C50.5523 19.7969 53.7658 22.995 53.7658 26.9235V31.5319C53.7658 35.4603 50.5776 38.6585 46.6304 38.6585H46.6051H46.0484C42.1012 38.6585 38.8877 35.4855 38.8877 31.557V31.5319V26.9235C38.8877 22.995 42.0759 19.7969 46.0231 19.7969H46.0484H46.6051Z" fill="#89E219"/><path d="M40.7857 22.041C38.8627 24.0808 35.6492 24.1815 33.5997 22.2677C33.5238 22.1921 33.4478 22.1166 33.3719 22.041C33.3213 26.6242 33.3213 30.7038 33.3719 34.3048L37.0662 34.2797L40.7604 34.3048C40.8363 30.7038 40.8363 26.599 40.7857 22.041Z" fill="#89E219"/><path d="M27.6532 22.4668C30.563 22.4668 32.9162 24.8088 32.9162 27.7047V30.8525C32.8403 33.7485 30.4365 36.0401 27.552 35.9646C24.7434 35.9142 22.4661 33.6478 22.4155 30.8525V27.7047C22.4155 24.8339 24.7434 22.492 27.6279 22.4668H27.6532Z" fill="white"/><path d="M28.3868 25.4648C29.7785 25.4648 30.8918 26.5729 30.8918 27.9579V30.6776C30.8412 32.0626 29.7026 33.1203 28.3109 33.0951C26.9952 33.0447 25.9324 31.9871 25.8818 30.6776V27.9579C25.9071 26.598 27.0205 25.49 28.3868 25.4648Z" fill="#4B4B4B"/><path d="M26.3119 25.3145C27.1975 25.3145 27.8807 26.0196 27.8807 26.8758C27.8807 27.732 27.1722 28.4371 26.3119 28.4371C25.4516 28.4371 24.7432 27.732 24.7432 26.8758C24.7432 26.0196 25.4263 25.3145 26.2866 25.3145H26.3119Z" fill="white"/><path d="M46.5292 22.4668C49.439 22.4668 51.7922 24.8088 51.7922 27.7047V30.8525C51.7163 33.7485 49.3125 36.0401 46.428 35.9646C43.6194 35.9142 41.3421 33.6478 41.2915 30.8525V27.7047C41.2915 24.8339 43.6194 22.492 46.5039 22.4668C46.5039 22.4668 46.5039 22.4668 46.5292 22.4668Z" fill="white"/><path d="M45.7955 25.4648C47.1872 25.4648 48.3005 26.5729 48.3005 27.9579V30.6776C48.2499 32.0626 47.1113 33.1203 45.7196 33.0951C44.4039 33.0447 43.3411 31.9871 43.2905 30.6776V27.9579C43.3158 26.598 44.4292 25.49 45.7955 25.4648Z" fill="#4B4B4B"/><path d="M43.4171 25.3145C44.3027 25.3145 44.9859 26.0196 44.9859 26.8758C44.9859 27.732 44.2774 28.4371 43.4171 28.4371C42.5568 28.4371 41.8483 27.732 41.8483 26.8758C41.823 26.0447 42.5062 25.3396 43.4171 25.3145C43.3918 25.3145 43.3918 25.3145 43.4171 25.3145Z" fill="white"/><path d="M41.4436 33.448C45.3909 31.7608 49.0092 30.6024 52.172 29.998C52.172 29.998 52.8046 35.4626 48.6549 36.7469C43.3413 38.409 41.4436 33.448 41.4436 33.448ZM25.5534 36.7721C21.3784 35.4878 22.0363 30.0232 22.0363 30.0232C25.1992 30.6024 28.8428 31.786 32.7647 33.4732C32.7647 33.448 30.867 38.409 25.5534 36.7721Z" fill="#89E219"/><path d="M37.0911 30.4004C38.584 30.4004 39.7985 31.6091 39.8238 33.0949C39.8238 33.0949 39.8238 33.0949 39.8238 33.1201V37.6277C39.8238 39.1135 38.6093 40.3474 37.0911 40.3474C35.5982 40.3474 34.3584 39.1387 34.3584 37.6277V33.1201C34.3837 31.6343 35.5982 30.4256 37.0911 30.4004Z" fill="#F49000"/><path d="M37.0909 31.4551C38.2548 31.4551 39.191 32.3868 39.191 33.5452V36.5419C39.191 37.7003 38.2548 38.6321 37.0909 38.6321C35.9269 38.6321 35.016 37.7003 34.9907 36.5419V33.5452C34.9907 32.412 35.9269 31.4803 37.0909 31.4551Z" fill="#B66E28"/><path d="M37.0914 33.5734L40.735 32.969C40.8109 32.9439 40.8615 32.8935 40.8362 32.818C40.482 30.753 38.4831 29.368 36.4082 29.7457C34.8395 30.0227 33.5996 31.2566 33.3213 32.818C33.3213 32.8935 33.3719 32.969 33.4225 32.969L37.0914 33.5734Z" fill="#FFC200"/><path d="M37.926 31.383C37.8754 31.383 37.8248 31.383 37.7742 31.3578C37.3187 31.2319 36.8633 31.2319 36.4078 31.3578C36.1042 31.4334 35.8258 31.2319 35.7499 30.9297C35.6993 30.6527 35.8511 30.3757 36.1042 30.3002C36.762 30.1239 37.4452 30.1239 38.0778 30.3002C38.3814 30.3757 38.5332 30.7031 38.4573 30.9801C38.3814 31.2067 38.179 31.383 37.926 31.383Z" fill="#FFDE00"/></g><defs><clipPath id="clip0_2475_90684"><rect width="64.2078" height="48" fill="white" transform="translate(4.98682 13)"/></clipPath></defs></svg>