<svg width="56" height="56" viewBox="0 0 56 56" fill="none" xmlns="http://www.w3.org/2000/svg"><circle cx="26.2065" cy="28.7031" r="15.4439" fill="#ECFFDE" stroke="#58CC02" stroke-width="3.86098"/><circle cx="26.2065" cy="28.7032" r="7.72196" fill="#ECFFDE" stroke="#58CC02" stroke-width="3.86098"/><path fill-rule="evenodd" clip-rule="evenodd" d="M42.8118 14.509L35.7686 19.9406L34.7238 14.6533C34.701 14.3324 34.7486 13.9572 35.0303 13.74L40.5241 9.50341C40.9467 9.17751 41.4466 9.24327 41.774 9.66779C41.8831 9.8093 41.9377 9.88006 41.9218 10.0051L42.8118 14.509Z" fill="#58A700"/><path fill-rule="evenodd" clip-rule="evenodd" d="M43.9032 15.9242L36.86 21.3557L41.7081 23.7099C42.0126 23.8135 42.3876 23.8628 42.6694 23.6455L48.1631 19.409C48.5857 19.0831 48.6491 18.5828 48.3218 18.1583C48.2126 18.0168 48.1581 17.946 48.0331 17.9296L43.9032 15.9242Z" fill="#58A700"/><rect x="24.6304" y="28.3301" width="23.3432" height="2.57505" rx="1.28753" transform="rotate(-37.6382 24.6304 28.3301)" fill="#478700"/></svg>