<?xml version="1.0" encoding="UTF-8"?><svg width="1085px" height="837px" viewBox="0 0 1085 837" version="1.1" xmlns="http://www.w3.org/2000/svg" xmlns:xlink="http://www.w3.org/1999/xlink"><title>fr</title><desc>Created with Sketch.</desc><g id="fr" stroke="none" stroke-width="1" fill="none" fill-rule="evenodd"><path d="M194.727081,-7.86720712e-15 L890.272919,7.86720712e-15 C957.983768,-4.5710739e-15 982.537357,7.05010515 1007.29143,20.2887288 C1032.04551,33.5273525 1051.47265,52.9544946 1064.71127,77.7085686 C1077.94989,102.462643 1085,127.016232 1085,194.727081 L1085,642.272919 C1085,709.983768 1077.94989,734.537357 1064.71127,759.291431 C1051.47265,784.045505 1032.04551,803.472648 1007.29143,816.711271 C982.537357,829.949895 957.983768,837 890.272919,837 L194.727081,837 C127.016232,837 102.462643,829.949895 77.7085686,816.711271 C52.9544946,803.472648 33.5273525,784.045505 20.2887288,759.291431 C7.05010515,734.537357 3.0473826e-15,709.983768 -5.24480475e-15,642.272919 L5.24480475e-15,194.727081 C-3.0473826e-15,127.016232 7.05010515,102.462643 20.2887288,77.7085686 C33.5273525,52.9544946 52.9544946,33.5273525 77.7085686,20.2887288 C102.462643,7.05010515 127.016232,4.5710739e-15 194.727081,-7.86720712e-15 Z" id="Rectangle-3" fill="#EEEEEE" fill-rule="nonzero"/><path d="M366.1875,3.55271368e-15 L366.1875,837 L194.727081,837 C127.016232,837 102.462643,829.949895 77.7085686,816.711271 C52.9544946,803.472648 33.5273525,784.045505 20.2887288,759.291431 C7.05010515,734.537357 -7.44380186e-15,709.983768 -7.44380186e-15,642.272919 L-7.44380186e-15,194.727081 C-7.44380186e-15,127.016232 7.05010515,102.462643 20.2887288,77.7085686 C33.5273525,52.9544946 52.9544946,33.5273525 77.7085686,20.2887288 C102.462643,7.05010515 127.016232,3.55271368e-15 194.727081,3.55271368e-15 L366.1875,3.55271368e-15 Z" id="Path" fill="#1CB0F6" fill-rule="nonzero"/><path d="M718.8125,3.55271368e-15 L890.272919,3.55271368e-15 C957.983768,3.55271368e-15 982.537357,7.05010515 1007.29143,20.2887288 C1032.04551,33.5273525 1051.47265,52.9544946 1064.71127,77.7085686 C1077.94989,102.462643 1085,127.016232 1085,194.727081 L1085,642.272919 C1085,709.983768 1077.94989,734.537357 1064.71127,759.291431 C1051.47265,784.045505 1032.04551,803.472648 1007.29143,816.711271 C982.537357,829.949895 957.983768,837 890.272919,837 L718.8125,837 L718.8125,3.55271368e-15 Z" id="Path" fill="#FF4B4B" fill-rule="nonzero"/></g></svg>