<?xml version="1.0" encoding="UTF-8"?><svg width="1085px" height="837px" viewBox="0 0 1085 837" version="1.1" xmlns="http://www.w3.org/2000/svg" xmlns:xlink="http://www.w3.org/1999/xlink"><title>es</title><desc>Created with Sketch.</desc><g id="es" stroke="none" stroke-width="1" fill="none" fill-rule="evenodd"><path d="M194.727081,0 L890.272919,0 C957.983768,0 982.537357,7.05010515 1007.29143,20.2887288 C1032.04551,33.5273525 1051.47265,52.9544946 1064.71127,77.7085686 C1077.94989,102.462643 1085,127.016232 1085,194.727081 L1085,642.272919 C1085,709.983768 1077.94989,734.537357 1064.71127,759.291431 C1051.47265,784.045505 1032.04551,803.472648 1007.29143,816.711271 C982.537357,829.949895 957.983768,837 890.272919,837 L194.727081,837 C127.016232,837 102.462643,829.949895 77.7085686,816.711271 C52.9544946,803.472648 33.5273525,784.045505 20.2887288,759.291431 C7.05010515,734.537357 0,709.983768 0,642.272919 L0,194.727081 C0,127.016232 7.05010515,102.462643 20.2887288,77.7085686 C33.5273525,52.9544946 52.9544946,33.5273525 77.7085686,20.2887288 C102.462643,7.05010515 127.016232,0 194.727081,0 Z" id="Rectangle-3" fill="#FF4B4B"/><polygon id="Rectangle-4" fill="#FFC800" points="0 239.142857 1085 239.142857 1085 597.857143 0 597.857143"/><path d="M421.944444,328.821429 C438.589693,328.821429 452.083333,342.315069 452.083333,358.960317 L452.083333,478.039683 C452.083333,494.684931 438.589693,508.178571 421.944444,508.178571 C405.299196,508.178571 391.805556,494.684931 391.805556,478.039683 L391.805556,358.960317 C391.805556,342.315069 405.299196,328.821429 421.944444,328.821429 Z" id="Rectangle-14" fill="#FFFFFF"/><path d="M120.555556,328.821429 C137.200804,328.821429 150.694444,342.315069 150.694444,358.960317 L150.694444,478.039683 C150.694444,494.684931 137.200804,508.178571 120.555556,508.178571 C103.910307,508.178571 90.4166667,494.684931 90.4166667,478.039683 L90.4166667,358.960317 C90.4166667,342.315069 103.910307,328.821429 120.555556,328.821429 Z" id="Rectangle-14-Copy" fill="#FFFFFF"/><path d="M207.958333,298.928571 L334.541667,298.928571 C349.522391,298.928571 361.666667,311.072848 361.666667,326.053571 L361.666667,447.654762 C361.666667,497.590508 321.185746,538.071429 271.25,538.071429 C221.314254,538.071429 180.833333,497.590508 180.833333,447.654762 L180.833333,326.053571 C180.833333,311.072848 192.977609,298.928571 207.958333,298.928571 Z" id="Rectangle-15" fill="#FF4B4B"/></g></svg>